<svg width="2538" height="650" viewBox="0 0 2538 650" fill="none" xmlns="http://www.w3.org/2000/svg">
<path d="M1046.78 324.977C1046.78 336.617 1044.95 347.555 1041.27 357.789C1037.6 368.023 1032.37 376.93 1025.57 384.508C1018.85 392.086 1010.77 398.062 1001.31 402.438C991.859 406.812 981.352 409 969.789 409H913.891C902.25 409 891.664 406.812 882.133 402.438C872.602 398.062 864.438 392.086 857.641 384.508C850.922 376.93 845.727 368.023 842.055 357.789C838.383 347.555 836.547 336.617 836.547 324.977C836.547 313.414 838.383 302.555 842.055 292.398C845.727 282.164 850.922 273.258 857.641 265.68C864.438 258.023 872.602 252.008 882.133 247.633C891.664 243.18 902.25 240.953 913.891 240.953H969.789C981.352 240.953 991.859 243.18 1001.31 247.633C1010.77 252.008 1018.85 258.023 1025.57 265.68C1032.37 273.258 1037.6 282.164 1041.27 292.398C1044.95 302.555 1046.78 313.414 1046.78 324.977ZM1022.76 324.977C1022.76 316.695 1021.55 308.922 1019.12 301.656C1016.7 294.391 1013.19 288.062 1008.58 282.672C1004.05 277.203 998.5 272.906 991.938 269.781C985.453 266.578 978.07 264.977 969.789 264.977H913.891C905.609 264.977 898.148 266.578 891.508 269.781C884.945 272.906 879.359 277.203 874.75 282.672C870.219 288.062 866.703 294.391 864.203 301.656C861.781 308.922 860.57 316.695 860.57 324.977C860.57 333.258 861.781 341.07 864.203 348.414C866.703 355.68 870.219 362.047 874.75 367.516C879.359 372.906 884.945 377.164 891.508 380.289C898.148 383.414 905.609 384.977 913.891 384.977H969.789C978.07 384.977 985.453 383.414 991.938 380.289C998.5 377.164 1004.05 372.906 1008.58 367.516C1013.19 362.047 1016.7 355.68 1019.12 348.414C1021.55 341.07 1022.76 333.258 1022.76 324.977Z" fill="#FCF8F3"/>
<path d="M1101.51 409H1077.48V240.953H1089.44C1097.25 240.953 1105.53 241.969 1114.28 244C1123.11 246.031 1132.09 248.961 1141.23 252.789C1150.38 256.617 1159.48 261.266 1168.54 266.734C1177.68 272.125 1186.51 278.258 1195.02 285.133C1203.54 292.008 1211.55 299.508 1219.05 307.633C1226.55 315.68 1233.27 324.273 1239.2 333.414V240.953H1263.23V409H1239.2C1239.2 396.656 1237.05 384.781 1232.76 373.375C1228.46 361.891 1222.72 351.07 1215.53 340.914C1208.34 330.758 1200.06 321.422 1190.69 312.906C1181.31 304.312 1171.51 296.773 1161.27 290.289C1151.12 283.805 1140.88 278.492 1130.57 274.352C1120.26 270.133 1110.57 267.32 1101.51 265.914V409Z" fill="#FCF8F3"/>
<path d="M1327.68 409H1303.66V240.953H1315.61C1323.42 240.953 1331.7 241.969 1340.45 244C1349.28 246.031 1358.27 248.961 1367.41 252.789C1376.55 256.617 1385.65 261.266 1394.71 266.734C1403.85 272.125 1412.68 278.258 1421.2 285.133C1429.71 292.008 1437.72 299.508 1445.22 307.633C1452.72 315.68 1459.44 324.273 1465.38 333.414V240.953H1489.4V409H1465.38C1465.38 396.656 1463.23 384.781 1458.93 373.375C1454.63 361.891 1448.89 351.07 1441.7 340.914C1434.52 330.758 1426.23 321.422 1416.86 312.906C1407.48 304.312 1397.68 296.773 1387.45 290.289C1377.29 283.805 1367.05 278.492 1356.74 274.352C1346.43 270.133 1336.74 267.32 1327.68 265.914V409Z" fill="#FCF8F3"/>
<path d="M1703.62 409H1529.83V240.953H1703.62V264.977H1553.85V384.977H1703.62V409ZM1683.23 337.047H1565.8V313.023H1683.23V337.047Z" fill="#FCF8F3"/>
<path d="M1907.76 409H1799.59C1787.95 409 1777.37 406.812 1767.84 402.438C1758.3 398.062 1750.14 392.086 1743.34 384.508C1736.62 376.93 1731.43 368.023 1727.76 357.789C1724.09 347.555 1722.25 336.617 1722.25 324.977C1722.25 313.414 1724.09 302.555 1727.76 292.398C1731.43 282.164 1736.62 273.258 1743.34 265.68C1750.14 258.023 1758.3 252.008 1767.84 247.633C1777.37 243.18 1787.95 240.953 1799.59 240.953H1907.76V264.977H1799.59C1791.31 264.977 1783.85 266.578 1777.21 269.781C1770.65 272.906 1765.06 277.203 1760.45 282.672C1755.92 288.062 1752.41 294.391 1749.91 301.656C1747.48 308.922 1746.27 316.695 1746.27 324.977C1746.27 333.258 1747.48 341.07 1749.91 348.414C1752.41 355.68 1755.92 362.047 1760.45 367.516C1765.06 372.906 1770.65 377.164 1777.21 380.289C1783.85 383.414 1791.31 384.977 1799.59 384.977H1907.76V409Z" fill="#FCF8F3"/>
<path d="M2028.11 409H2004.09V264.977H1919.12V240.953H2113.07V264.977H2028.11V409Z" fill="#FCF8F3"/>
<path d="M2309.48 409H2135.69V240.953H2309.48V264.977H2159.71V384.977H2309.48V409ZM2289.09 337.047H2171.66V313.023H2289.09V337.047Z" fill="#FFA100"/>
<path d="M2537.41 324.977C2537.41 336.617 2535.53 347.555 2531.78 357.789C2528.11 368.023 2522.88 376.93 2516.08 384.508C2509.28 392.086 2501.12 398.062 2491.59 402.438C2482.13 406.812 2471.62 409 2460.06 409H2375.34V384.977H2460.06C2468.34 384.977 2475.77 383.414 2482.33 380.289C2488.97 377.164 2494.55 372.906 2499.09 367.516C2503.7 362.047 2507.21 355.68 2509.63 348.414C2512.13 341.07 2513.38 333.258 2513.38 324.977C2513.38 316.695 2512.13 308.922 2509.63 301.656C2507.21 294.391 2503.7 288.062 2499.09 282.672C2494.55 277.203 2488.97 272.906 2482.33 269.781C2475.77 266.578 2468.34 264.977 2460.06 264.977H2363.38V409H2339.36V240.953H2460.06C2471.62 240.953 2482.13 243.18 2491.59 247.633C2501.12 252.008 2509.28 258.023 2516.08 265.68C2522.88 273.258 2528.11 282.164 2531.78 292.398C2535.53 302.555 2537.41 313.414 2537.41 324.977Z" fill="#FFA100"/>
<path d="M470 650C556.195 650 638.86 615.759 699.81 554.81C760.759 493.86 795 411.195 795 325C795 238.805 760.759 156.14 699.81 95.1903C638.86 34.241 556.195 1.67829e-05 470 0V85.1348C533.616 85.1348 594.627 110.406 639.61 155.39C684.594 200.373 709.865 261.384 709.865 325C709.865 388.616 684.594 449.627 639.61 494.61C594.627 539.594 533.616 564.865 470 564.865V650Z" fill="#FCF8F3"/>
<path d="M310 275H470V375H310V275Z" fill="#FFA100"/>
<path d="M0 275H279V375H0V275Z" fill="#FCF8F3"/>
<path d="M470 0L487 0V109H470L470 0Z" fill="#FCF8F3"/>
<path d="M470 541H487V650H470V541Z" fill="#FCF8F3"/>
<path d="M571.006 375C552.799 410.617 515.747 435 473 435C412.249 435 363 385.751 363 325C363 264.249 412.249 215 473 215C515.747 215 552.799 239.383 571.006 275H666.699C644.497 188.739 566.192 125 473 125C362.543 125 273 214.543 273 325C273 435.457 362.543 525 473 525C566.192 525 644.497 461.261 666.699 375H571.006Z" fill="#FFA100"/>
</svg>
